<?xml version="1.0" encoding="utf-8"?>
<svg version="1.1" style="" width="646" height="720" xmlns="http://www.w3.org/2000/svg">
  <rect id="backgroundrect" width="100%" height="100%" x="0" y="0" fill="none" stroke="none"/>
  <g class="currentLayer" style="" transform="matrix(1, 0, 0, 1, -18.851484, -29.94059)">
    <title>Layer 1</title>
    <g stroke-width="2.00" fill="none" stroke-linecap="butt" id="svg_1">
      <path stroke="#bad778" vector-effect="non-scaling-stroke" d="   M 163.11 233.51   C 144.01 251.92 125.50 271.04 106.80 289.86   A 1.52 1.47 72.2 0 0 106.38 290.71   Q 105.63 296.22 104.99 301.75   Q 84.53 477.27 63.75 652.77   A 1.07 1.07 5.1 0 0 64.75 653.96   C 218.56 663.42 372.45 672.60 526.31 682.51   A 1.17 1.17 -80.6 0 0 527.51 681.65   C 527.97 679.89 528.86 678.50 530.30 677.18   Q 557.65 651.97 584.72 626.60   A 1.00 0.98 65.3 0 0 585.02 625.76   Q 583.18 612.02 581.76 598.25   C 569.24 476.85 555.65 355.54 542.49 234.17   A 1.32 1.24 86.6 0 0 541.25 233.00   L 509.25 233.00   A 0.81 0.77 -1.5 0 1 508.44 232.27   C 507.99 222.13 507.53 211.53 505.79 201.98   C 490.20 116.29 411.56 57.91 325.03 71.36   C 257.68 81.82 205.78 134.03 193.45 200.56   C 192.60 205.17 192.10 210.62 191.40 215.66   C 190.56 221.60 188.50 226.91 186.41 232.44   A 1.02 0.84 8.6 0 1 185.50 232.99   L 163.94 233.02   A 1.35 0.47 -49.7 0 0 163.11 233.51" id="svg_2"/>
      <path stroke="#bad778" vector-effect="non-scaling-stroke" d="   M 464.56 232.20   C 464.92 194.42 449.41 159.69 419.67 136.79   C 376.37 103.44 317.35 104.74 275.53 140.19   Q 273.75 141.70 275.97 140.98   C 342.80 119.34 410.81 148.50 442.85 210.20   C 446.30 216.84 449.44 224.75 452.40 232.10   A 1.46 1.43 -10.7 0 0 453.75 233.00   L 463.75 233.00   A 0.81 0.80 -0.0 0 0 464.56 232.20" id="svg_3"/>
      <path stroke="#bad778" vector-effect="non-scaling-stroke" d="   M 239.00 233.00   L 401.69 233.00   A 0.57 0.55 76.1 0 0 402.17 232.17   C 378.08 185.16 322.07 166.36 275.22 192.22   C 259.31 201.00 246.64 214.58 237.52 230.33   Q 235.97 233.00 239.00 233.00" id="svg_4"/>
      <path stroke="#bad778" vector-effect="non-scaling-stroke" d="   M 507.32 282.39   C 507.04 282.50 495.72 605.78 495.50 635.08   Q 495.50 635.89 496.16 635.39   Q 519.13 617.99 541.24 599.49   A 2.21 1.94 -24.0 0 0 542.02 597.79   C 540.75 577.25 537.13 548.03 533.84 517.87   Q 521.04 400.40 507.83 282.97   A 0.60 0.37 80.2 0 0 507.32 282.39" id="svg_5"/>
      <path stroke="#bad778" vector-effect="non-scaling-stroke" d="   M 422.43 348.57   C 382.54 303.54 325.73 279.61 265.49 291.22   Q 199.45 303.94 161.22 359.04   C 160.60 359.92 160.43 361.40 159.93 362.18   C 139.41 394.07 129.56 432.16 133.84 469.95   Q 141.13 534.42 191.47 576.52   C 224.10 603.80 266.51 617.77 308.82 614.14   C 388.79 607.28 453.47 541.48 457.45 461.08   A 0.44 0.36 85.1 0 0 456.99 460.60   C 456.33 460.82 455.21 466.21 454.97 467.46   C 443.06 529.29 391.98 581.07 331.33 596.46   C 247.68 617.68 161.06 562.56 147.92 476.42   Q 139.72 422.65 167.51 375.12   Q 175.08 362.18 176.95 359.70   C 204.07 323.79 249.01 302.32 293.73 301.86   C 341.31 301.38 381.68 321.49 411.98 357.58   A 0.84 0.47 47.5 0 1 412.18 358.43   Q 411.37 359.43 410.18 359.92   A 0.91 0.32 -20.7 0 0 409.49 360.50   L 409.57 360.94   A 0.80 0.77 67.3 0 1 409.26 361.74   L 393.48 373.00   Q 391.20 374.62 388.90 372.34   L 378.23 361.78   A 0.76 0.05 44.2 0 1 377.75 361.25   L 377.75 360.75   A 1.15 0.50 32.9 0 0 377.27 360.03   Q 363.88 348.76 352.71 342.73   C 308.32 318.79 251.84 324.66 214.28 359.91   C 213.59 360.56 213.50 361.64 212.74 362.37   C 178.16 395.80 165.96 445.92 183.50 491.20   C 203.86 543.74 257.50 576.78 313.94 567.91   C 364.35 560.00 408.48 518.53 413.51 466.61   C 413.53 466.44 413.47 466.30 413.30 466.25   A 0.38 0.23 -69.7 0 0 412.96 466.52   C 393.85 513.96 347.71 556.28 294.03 556.29   C 260.66 556.29 227.53 536.91 208.46 510.02   C 174.66 462.37 184.52 396.66 232.69 362.31   C 233.88 361.47 234.49 360.08 235.81 359.26   C 272.84 335.89 319.65 334.61 356.32 359.92   C 357.06 360.44 357.71 361.76 358.70 362.53   Q 369.88 371.19 379.03 382.06   A 0.63 0.60 51.6 0 1 378.95 382.96   L 354.43 400.42   Q 352.45 401.83 350.76 400.04   C 312.35 359.48 244.33 372.62 226.83 426.34   C 212.87 469.18 242.88 517.32 288.45 521.41   C 318.49 524.11 349.00 508.31 361.14 480.42   Q 361.84 478.83 360.57 480.02   C 346.16 493.59 325.97 505.21 306.14 507.93   C 260.11 514.25 222.59 470.93 241.23 426.27   C 257.61 387.00 311.37 375.10 339.59 409.28   A 1.54 1.53 -36.9 0 1 339.27 411.53   L 315.02 428.02   A 1.48 1.13 -51.4 0 1 314.03 428.27   C 309.68 427.49 305.63 424.83 302.03 424.29   Q 295.57 423.33 289.60 426.60   C 264.18 440.58 283.38 477.44 309.13 465.22   C 317.59 461.21 319.66 453.11 321.61 445.19   Q 322.07 443.35 323.78 442.30   L 447.44 366.43   Q 449.12 365.40 448.14 363.64   Q 442.47 353.38 435.68 343.82   A 1.05 0.96 -32.7 0 0 434.33 343.59   L 425.06 349.07   A 2.18 2.02 53.6 0 1 422.43 348.57" id="svg_6"/>
    </g>
    <path fill="#f0f0f0" d="M55.48611049164773,69.17466152573917 L588.7631857087497,69.17466152573917 L588.7631857087497,685.1315803570792 L55.48611049164773,685.1315803570792 L55.48611049164773,69.17466152573917 zM190.13444445242408,268.9414672428311 C174.36727396225896,284.69114345906024 159.08715219404138,301.0482216369148 143.65018422723054,317.1486510985895 A1.2547695887461225,1.2575787092806525 72.2 0 0 143.30347157770856,317.87582246109866 Q142.6843418464194,322.58960388159966 142.15601780905257,327.3204952165126 Q125.26615873948309,477.47710409606367 108.11213765123016,627.6166030612028 A0.8832917499725995,0.9153804210410195 5.1 0 0 108.93764395961577,628.6346429687159 C235.90876925240596,636.7276324855831 362.94593504986705,644.5810832006827 489.9583356580764,653.0590457918196 A0.9658423808111599,1.0009299931009275 -80.6 0 0 490.94894322813917,652.3233194721043 C491.3286761299965,650.81764700385 492.0633767444598,649.6285079522172 493.25210582853504,648.4992536010265 Q515.8297033628814,626.9322064847236 538.1761591308798,605.2282800531249 A0.8255063083856069,0.838385806187102 65.3 0 0 538.4238110233955,604.5096636478215 Q536.9048794159659,592.7551524467901 535.7326604580583,580.9749763741407 C525.3973214770706,477.11779589341205 514.1786907461101,373.33761002753727 503.3150277277556,269.5060944184265 A1.089668327069001,1.0608146935428635 86.6 0 0 502.29139990535754,268.50516442532563 L475.8751980370181,268.50516442532563 A0.6686601097923424,0.6587317048612946 -1.5 0 1 475.2065379272256,267.8806525492883 C474.8350600884521,259.20592594241356 474.45532718659473,250.13767130406328 473.0189462100039,241.967687172342 C460.1493028622722,168.66025887420656 395.2314867708281,118.7164187056321 323.8004259062215,130.22283614768975 C268.20257603645086,139.17132138515618 225.3587986312379,183.83675295763433 215.18030584884337,240.75288324909135 C214.4786254867156,244.6967185210531 214.0658723325228,249.3591701983181 213.4880179166529,253.67086863013748 C212.79459261760897,258.75251321049603 211.0940496223346,263.29519548687716 209.3687414378087,268.0260868217901 A0.8420164345533192,0.7186164053032301 8.6 0 1 208.61753069717778,268.49660946811963 L190.8196146883841,268.52227433973763 A1.1144335163205692,0.4020829886815695 -49.7 0 0 190.13444445242408,268.9414672428311 z" id="svg_7" class="" opacity="0"/>
    <path fill="#13b300" d="   M 106.80 289.86   C 125.50 271.04 144.01 251.92 163.11 233.51   A 1.35 0.47 -49.7 0 1 163.94 233.02   L 185.50 232.99   A 1.02 0.84 8.6 0 0 186.41 232.44   C 188.50 226.91 190.56 221.60 191.40 215.66   C 192.10 210.62 192.60 205.17 193.45 200.56   C 205.78 134.03 257.68 81.82 325.03 71.36   C 411.56 57.91 490.20 116.29 505.79 201.98   C 507.53 211.53 507.99 222.13 508.44 232.27   A 0.81 0.77 -1.5 0 0 509.25 233.00   L 541.25 233.00   A 1.32 1.24 86.6 0 1 542.49 234.17   C 555.65 355.54 569.24 476.85 581.76 598.25   Q 583.18 612.02 585.02 625.76   A 1.00 0.98 65.3 0 1 584.72 626.60   Q 557.65 651.97 530.30 677.18   C 528.86 678.50 527.97 679.89 527.51 681.65   A 1.17 1.17 -80.6 0 1 526.31 682.51   C 372.45 672.60 218.56 663.42 64.75 653.96   A 1.07 1.07 5.1 0 1 63.75 652.77   Q 84.53 477.27 104.99 301.75   Q 105.63 296.22 106.38 290.71   A 1.52 1.47 72.2 0 1 106.80 289.86   Z   M 464.56 232.20   C 464.92 194.42 449.41 159.69 419.67 136.79   C 376.37 103.44 317.35 104.74 275.53 140.19   Q 273.75 141.70 275.97 140.98   C 342.80 119.34 410.81 148.50 442.85 210.20   C 446.30 216.84 449.44 224.75 452.40 232.10   A 1.46 1.43 -10.7 0 0 453.75 233.00   L 463.75 233.00   A 0.81 0.80 -0.0 0 0 464.56 232.20   Z   M 239.00 233.00   L 401.69 233.00   A 0.57 0.55 76.1 0 0 402.17 232.17   C 378.08 185.16 322.07 166.36 275.22 192.22   C 259.31 201.00 246.64 214.58 237.52 230.33   Q 235.97 233.00 239.00 233.00   Z   M 507.32 282.39   C 507.04 282.50 495.72 605.78 495.50 635.08   Q 495.50 635.89 496.16 635.39   Q 519.13 617.99 541.24 599.49   A 2.21 1.94 -24.0 0 0 542.02 597.79   C 540.75 577.25 537.13 548.03 533.84 517.87   Q 521.04 400.40 507.83 282.97   A 0.60 0.37 80.2 0 0 507.32 282.39   Z   M 422.43 348.57   C 382.54 303.54 325.73 279.61 265.49 291.22   Q 199.45 303.94 161.22 359.04   C 160.60 359.92 160.43 361.40 159.93 362.18   C 139.41 394.07 129.56 432.16 133.84 469.95   Q 141.13 534.42 191.47 576.52   C 224.10 603.80 266.51 617.77 308.82 614.14   C 388.79 607.28 453.47 541.48 457.45 461.08   A 0.44 0.36 85.1 0 0 456.99 460.60   C 456.33 460.82 455.21 466.21 454.97 467.46   C 443.06 529.29 391.98 581.07 331.33 596.46   C 247.68 617.68 161.06 562.56 147.92 476.42   Q 139.72 422.65 167.51 375.12   Q 175.08 362.18 176.95 359.70   C 204.07 323.79 249.01 302.32 293.73 301.86   C 341.31 301.38 381.68 321.49 411.98 357.58   A 0.84 0.47 47.5 0 1 412.18 358.43   Q 411.37 359.43 410.18 359.92   A 0.91 0.32 -20.7 0 0 409.49 360.50   L 409.57 360.94   A 0.80 0.77 67.3 0 1 409.26 361.74   L 393.48 373.00   Q 391.20 374.62 388.90 372.34   L 378.23 361.78   A 0.76 0.05 44.2 0 1 377.75 361.25   L 377.75 360.75   A 1.15 0.50 32.9 0 0 377.27 360.03   Q 363.88 348.76 352.71 342.73   C 308.32 318.79 251.84 324.66 214.28 359.91   C 213.59 360.56 213.50 361.64 212.74 362.37   C 178.16 395.80 165.96 445.92 183.50 491.20   C 203.86 543.74 257.50 576.78 313.94 567.91   C 364.35 560.00 408.48 518.53 413.51 466.61   C 413.53 466.44 413.47 466.30 413.30 466.25   A 0.38 0.23 -69.7 0 0 412.96 466.52   C 393.85 513.96 347.71 556.28 294.03 556.29   C 260.66 556.29 227.53 536.91 208.46 510.02   C 174.66 462.37 184.52 396.66 232.69 362.31   C 233.88 361.47 234.49 360.08 235.81 359.26   C 272.84 335.89 319.65 334.61 356.32 359.92   C 357.06 360.44 357.71 361.76 358.70 362.53   Q 369.88 371.19 379.03 382.06   A 0.63 0.60 51.6 0 1 378.95 382.96   L 354.43 400.42   Q 352.45 401.83 350.76 400.04   C 312.35 359.48 244.33 372.62 226.83 426.34   C 212.87 469.18 242.88 517.32 288.45 521.41   C 318.49 524.11 349.00 508.31 361.14 480.42   Q 361.84 478.83 360.57 480.02   C 346.16 493.59 325.97 505.21 306.14 507.93   C 260.11 514.25 222.59 470.93 241.23 426.27   C 257.61 387.00 311.37 375.10 339.59 409.28   A 1.54 1.53 -36.9 0 1 339.27 411.53   L 315.02 428.02   A 1.48 1.13 -51.4 0 1 314.03 428.27   C 309.68 427.49 305.63 424.83 302.03 424.29   Q 295.57 423.33 289.60 426.60   C 264.18 440.58 283.38 477.44 309.13 465.22   C 317.59 461.21 319.66 453.11 321.61 445.19   Q 322.07 443.35 323.78 442.30   L 447.44 366.43   Q 449.12 365.40 448.14 363.64   Q 442.47 353.38 435.68 343.82   A 1.05 0.96 -32.7 0 0 434.33 343.59   L 425.06 349.07   A 2.18 2.02 53.6 0 1 422.43 348.57   Z" id="svg_8" class="" fill-opacity="1"/>
    <path fill="#f0f0f0" d="   M 464.56 232.20   A 0.81 0.80 -0.0 0 1 463.75 233.00   L 453.75 233.00   A 1.46 1.43 -10.7 0 1 452.40 232.10   C 449.44 224.75 446.30 216.84 442.85 210.20   C 410.81 148.50 342.80 119.34 275.97 140.98   Q 273.75 141.70 275.53 140.19   C 317.35 104.74 376.37 103.44 419.67 136.79   C 449.41 159.69 464.92 194.42 464.56 232.20   Z" id="svg_9" class="" opacity="0"/>
    <path fill="#f0f0f0" d="   M 239.00 233.00   Q 235.97 233.00 237.52 230.33   C 246.64 214.58 259.31 201.00 275.22 192.22   C 322.07 166.36 378.08 185.16 402.17 232.17   A 0.57 0.55 76.1 0 1 401.69 233.00   L 239.00 233.00   Z" id="svg_10" class="" opacity="0"/>
    <path fill="#f0f0f0" d="   M 495.50 635.08   C 495.72 605.78 507.04 282.50 507.32 282.39   A 0.60 0.37 80.2 0 1 507.83 282.97   Q 521.04 400.40 533.84 517.87   C 537.13 548.03 540.75 577.25 542.02 597.79   A 2.21 1.94 -24.0 0 1 541.24 599.49   Q 519.13 617.99 496.16 635.39   Q 495.50 635.89 495.50 635.08   Z" id="svg_11" class="" opacity="0"/>
    <path fill="#f0f0f0" d="   M 265.49 291.22   C 325.73 279.61 382.54 303.54 422.43 348.57   A 2.18 2.02 53.6 0 0 425.06 349.07   L 434.33 343.59   A 1.05 0.96 -32.7 0 1 435.68 343.82   Q 442.47 353.38 448.14 363.64   Q 449.12 365.40 447.44 366.43   L 323.78 442.30   Q 322.07 443.35 321.61 445.19   C 319.66 453.11 317.59 461.21 309.13 465.22   C 283.38 477.44 264.18 440.58 289.60 426.60   Q 295.57 423.33 302.03 424.29   C 305.63 424.83 309.68 427.49 314.03 428.27   A 1.48 1.13 -51.4 0 0 315.02 428.02   L 339.27 411.53   A 1.54 1.53 -36.9 0 0 339.59 409.28   C 311.37 375.10 257.61 387.00 241.23 426.27   C 222.59 470.93 260.11 514.25 306.14 507.93   C 325.97 505.21 346.16 493.59 360.57 480.02   Q 361.84 478.83 361.14 480.42   C 349.00 508.31 318.49 524.11 288.45 521.41   C 242.88 517.32 212.87 469.18 226.83 426.34   C 244.33 372.62 312.35 359.48 350.76 400.04   Q 352.45 401.83 354.43 400.42   L 378.95 382.96   A 0.63 0.60 51.6 0 0 379.03 382.06   Q 369.88 371.19 358.70 362.53   C 357.71 361.76 357.06 360.44 356.32 359.92   C 319.65 334.61 272.84 335.89 235.81 359.26   C 234.49 360.08 233.88 361.47 232.69 362.31   C 184.52 396.66 174.66 462.37 208.46 510.02   C 227.53 536.91 260.66 556.29 294.03 556.29   C 347.71 556.28 393.85 513.96 412.96 466.52   A 0.38 0.23 -69.7 0 1 413.30 466.25   C 413.47 466.30 413.53 466.44 413.51 466.61   C 408.48 518.53 364.35 560.00 313.94 567.91   C 257.50 576.78 203.86 543.74 183.50 491.20   C 165.96 445.92 178.16 395.80 212.74 362.37   C 213.50 361.64 213.59 360.56 214.28 359.91   C 251.84 324.66 308.32 318.79 352.71 342.73   Q 363.88 348.76 377.27 360.03   A 1.15 0.50 32.9 0 1 377.75 360.75   L 377.75 361.25   A 0.76 0.05 44.2 0 0 378.23 361.78   L 388.90 372.34   Q 391.20 374.62 393.48 373.00   L 409.26 361.74   A 0.80 0.77 67.3 0 0 409.57 360.94   L 409.49 360.50   A 0.91 0.32 -20.7 0 1 410.18 359.92   Q 411.37 359.43 412.18 358.43   A 0.84 0.47 47.5 0 0 411.98 357.58   C 381.68 321.49 341.31 301.38 293.73 301.86   C 249.01 302.32 204.07 323.79 176.95 359.70   Q 175.08 362.18 167.51 375.12   Q 139.72 422.65 147.92 476.42   C 161.06 562.56 247.68 617.68 331.33 596.46   C 391.98 581.07 443.06 529.29 454.97 467.46   C 455.21 466.21 456.33 460.82 456.99 460.60   A 0.44 0.36 85.1 0 1 457.45 461.08   C 453.47 541.48 388.79 607.28 308.82 614.14   C 266.51 617.77 224.10 603.80 191.47 576.52   Q 141.13 534.42 133.84 469.95   C 129.56 432.16 139.41 394.07 159.93 362.18   C 160.43 361.40 160.60 359.92 161.22 359.04   Q 199.45 303.94 265.49 291.22   Z" id="svg_12" class="" opacity="0"/>
  </g>
</svg>